<?xml version="1.0" standalone="no"?>
<!DOCTYPE svg PUBLIC "-//W3C//DTD SVG 20010904//EN"
 "http://www.w3.org/TR/2001/REC-SVG-20010904/DTD/svg10.dtd">
<svg version="1.0" xmlns="http://www.w3.org/2000/svg"
 width="112.000000pt" height="104.000000pt" viewBox="0 0 112.000000 104.000000"
 preserveAspectRatio="xMidYMid meet">

<g transform="translate(0.000000,104.000000) scale(0.100000,-0.100000)"
fill="#000000" stroke="none">
<path d="M510 755 c0 -114 3 -145 13 -145 16 0 194 105 221 131 11 10 17 21
14 24 -15 16 -223 135 -234 135 -11 0 -14 -30 -14 -145z"/>
<path d="M257 643 c-13 -13 -8 -270 6 -281 9 -7 45 10 130 61 64 40 116 76
114 81 -3 10 -224 146 -237 146 -4 0 -10 -3 -13 -7z"/>
<path d="M767 643 c-11 -10 -8 -281 2 -288 10 -6 202 105 234 135 17 16 12 20
-97 88 -116 72 -127 78 -139 65z"/>
<path d="M510 256 c0 -87 4 -147 10 -151 11 -7 240 131 240 145 0 9 -225 150
-240 150 -6 0 -10 -55 -10 -144z"/>
</g>
</svg>
